<?xml version="1.0" encoding="UTF-8"?>
<svg id="Artwork" xmlns="http://www.w3.org/2000/svg" viewBox="0 0 172.74 172.74">
  <defs>
    <style>
      .cls-1 {
        fill: #007dbb;
      }

      .cls-2 {
        fill: #fff;
      }

      .cls-3 {
        fill: #7e9c3d;
      }

      .cls-4 {
        fill: #e32726;
      }
    </style>
  </defs>
  <rect class="cls-2" width="172.74" height="172.74"/>
  <g>
    <path class="cls-4" d="M85.32,123.87v-37.43c-4.05-.59-7.16-4.07-7.16-8.28,0-.4,.03-.7,.03-.7,0-.33-.04-.7-.23-.96-.37-.49-1.18-.87-1.55-1.02l-27.52-10.57-1.12-.43c-.71-.27-1.79-.68-2.56-.6-1.07,.11-1.64,.53-1.87,.74-2.24,2.54-5.91,3.55-9.26,2.26-4.31-1.65-6.46-6.48-4.82-10.79,1.66-4.3,6.49-6.44,10.79-4.78,3.3,1.26,5.33,4.39,5.37,7.83,.02,.27,.13,1,.89,1.85,.53,.59,1.63,1.01,2.34,1.28l1.09,.42,27.19,10.44,.33,.13c.38,.14,1.24,.39,1.84,.28,.07-.02,.15-.04,.22-.07-.17-.69-.76-1.37-1.05-1.65l-21.2-20.48-.87-.83c-.55-.53-1.38-1.33-2.12-1.56-1.03-.31-1.72-.15-2.01-.05-3.06,1.46-6.83,.96-9.41-1.54-3.32-3.2-3.41-8.49-.22-11.81,3.21-3.31,8.49-3.39,11.81-.18,2.54,2.45,3.19,6.12,1.88,9.3-.09,.26-.27,.97,.1,2.05,.26,.74,1.1,1.57,1.65,2.09l.84,.81,20.95,20.23,.25,.25c.29,.27,.99,.85,1.59,.97,.07,.01,.15,.02,.22,.02,.12-.7-.17-1.56-.32-1.93l-11.52-27.13-.47-1.1c-.3-.7-.76-1.76-1.35-2.26-.83-.7-1.53-.81-1.83-.83-3.38,.15-6.66-1.79-8.06-5.09-1.8-4.25,.18-9.15,4.42-10.96,4.25-1.79,9.14,.2,10.94,4.44,1.38,3.25,.55,6.88-1.9,9.3-.18,.2-.63,.79-.71,1.92-.06,.79,.41,1.88,.7,2.58l.45,1.07,11.38,26.81,.14,.32c.17,.37,.58,1.17,1.08,1.51,.06,.04,.13,.08,.2,.11,.39-.6,.45-1.5,.46-1.9v-30.67c0-.76,0-1.92-.36-2.61-.49-.96-1.09-1.34-1.36-1.47-3.18-1.19-5.43-4.25-5.43-7.84,0-4.61,3.73-8.36,8.35-8.37,4.61,.01,8.33,3.75,8.33,8.37,0,3.53-2.19,6.55-5.39,7.82-.25,.11-.89,.48-1.41,1.49-.36,.7-.35,1.89-.35,2.64v1.16s0,29.12,0,29.12v.35c.01,.4,.08,1.3,.4,1.82,.12,.05,.18,.02,.24-.02,.5-.35,.91-1.15,1.08-1.51l.14-.32,11.38-26.81,.45-1.07c.3-.7,.76-1.79,.71-2.58-.08-1.14-.52-1.73-.71-1.92-2.45-2.42-3.29-6.05-1.9-9.3,1.8-4.25,6.69-6.24,10.93-4.44,4.25,1.81,6.22,6.71,4.42,10.96-1.4,3.3-4.68,5.24-8.06,5.09-.3,.01-1,.13-1.83,.83-.59,.5-1.05,1.56-1.34,2.26l-.47,1.1-11.52,27.13c-.15,.37-.44,1.23-.34,1.83,.1,.1,.18,.1,.25,.08,.6-.13,1.29-.7,1.58-.97l.26-.25,20.95-20.23,.84-.81c.54-.53,1.4-1.35,1.65-2.09,.38-1.08,.19-1.8,.1-2.05-1.31-3.18-.66-6.85,1.88-9.3,3.32-3.2,8.6-3.12,11.81,.18,3.19,3.33,3.1,8.61-.22,11.81-2.58,2.5-6.35,3-9.41,1.54-.28-.11-.98-.27-2.01,.05-.74,.23-1.58,1.03-2.13,1.56l-.86,.83-21.2,20.48c-.29,.28-.88,.96-1.03,1.55,.05,.14,.13,.16,.2,.18,.6,.12,1.46-.14,1.84-.28l.33-.13,27.19-10.44,1.09-.42c.71-.27,1.81-.69,2.34-1.28,.76-.85,.88-1.58,.89-1.85,.04-3.44,2.07-6.57,5.37-7.83,4.31-1.65,9.13,.48,10.79,4.78,1.64,4.31-.51,9.14-4.81,10.79-3.35,1.29-7.02,.28-9.27-2.26-.22-.21-.79-.63-1.86-.74-.77-.08-1.85,.33-2.56,.6l-1.12,.43-27.51,10.57c-.38,.15-1.19,.54-1.55,1.02-.22,.3-.25,.77-.23,1.13,.02,.29,0,.35,0,.35v.17c0,4.21-3.11,7.69-7.15,8.28v37.43h-2.37Z"/>
    <path class="cls-3" d="M90.42,99.55c16.41-7.84,33.79-15.08,51.77-18.26,2.91,7.7-6.28,13.06-11.98,15.9-11.87,5.19-27.44,7.19-39.79,2.36m-7.3-1.69c-16.24-7.9-33.61-15.11-51.54-17.89,5.14-6.8,15.25-6.29,22.7-4.83,12.1,3.09,23.33,11.31,28.84,22.71m-.51,1.69c-12.35,4.82-27.92,2.82-39.8-2.36-5.69-2.84-14.88-8.19-11.97-15.9,17.98,3.18,35.36,10.42,51.77,18.26m7.31-1.69c5.52-11.4,16.75-19.63,28.84-22.71,7.45-1.46,17.56-1.97,22.7,4.83-17.94,2.78-35.31,9.99-51.54,17.89"/>
    <path class="cls-1" d="M144.31,143.04c-4.54,1.8-9.29,2.67-13.38,2.67-6.94,0-15.71-2.5-22.19-7.79-6.51,5.29-15.33,7.79-22.27,7.79s-15.71-2.5-22.19-7.79c-6.51,5.29-15.33,7.79-22.27,7.79-4.08,0-8.79-.87-13.3-2.65v-6.26c4.19,1.84,8.74,2.85,13.3,2.85,8.1,0,16.19-3.21,22.27-8.49,6.06,5.29,14.11,8.49,22.19,8.49s16.19-3.21,22.27-8.49c6.06,5.29,14.11,8.49,22.19,8.49,4.58,0,9.17-1.03,13.38-2.88v6.26Zm0,10.28c-4.54,1.8-9.29,2.67-13.38,2.67-6.94,0-15.71-2.5-22.19-7.79-6.51,5.29-15.33,7.79-22.27,7.79s-15.71-2.5-22.19-7.79c-6.51,5.29-15.33,7.79-22.27,7.79-4.08,0-8.79-.86-13.3-2.65v-6.27c4.19,1.84,8.74,2.86,13.3,2.86,8.1,0,16.19-3.21,22.27-8.49,6.06,5.28,14.11,8.49,22.19,8.49s16.19-3.21,22.27-8.49c6.06,5.28,14.11,8.49,22.19,8.49,4.58,0,9.17-1.03,13.38-2.88v6.26Zm-39.51-30c1.59-1.36,2.94-2.92,3.94-4.67,1.01,1.75,2.36,3.31,3.94,4.67,4.98,4.29,12.25,6.61,18.25,6.61,4.23,0,9.12-1.16,13.38-3.34v6.42c-4.53,1.86-9.3,2.76-13.38,2.76-6.98,0-15.88-2.63-22.19-8.13-6.34,5.5-15.29,8.13-22.27,8.13s-15.88-2.63-22.19-8.13c-6.34,5.5-15.3,8.13-22.27,8.13-4.08,0-8.81-.9-13.3-2.74v-6.43c4.24,2.17,9.09,3.32,13.3,3.32,6,0,13.33-2.32,18.33-6.61,1.59-1.36,2.94-2.92,3.95-4.67,1.01,1.75,2.35,3.31,3.94,4.67,4.98,4.29,12.25,6.61,18.24,6.61s13.33-2.32,18.33-6.61"/>
  </g>
</svg>